<svg width="21" height="21" viewBox="0 0 21 21" fill="none" xmlns="http://www.w3.org/2000/svg">
<path d="M9.16797 15.5H11.168V11.5H15.168V9.5H11.168V5.5H9.16797V9.5H5.16797V11.5H9.16797V15.5ZM10.168 20.5C8.78464 20.5 7.48464 20.2375 6.26797 19.7125C5.0513 19.1875 3.99297 18.475 3.09297 17.575C2.19297 16.675 1.48047 15.6167 0.955469 14.4C0.430469 13.1833 0.167969 11.8833 0.167969 10.5C0.167969 9.11667 0.430469 7.81667 0.955469 6.6C1.48047 5.38333 2.19297 4.325 3.09297 3.425C3.99297 2.525 5.0513 1.8125 6.26797 1.2875C7.48464 0.7625 8.78464 0.5 10.168 0.5C11.5513 0.5 12.8513 0.7625 14.068 1.2875C15.2846 1.8125 16.343 2.525 17.243 3.425C18.143 4.325 18.8555 5.38333 19.3805 6.6C19.9055 7.81667 20.168 9.11667 20.168 10.5C20.168 11.8833 19.9055 13.1833 19.3805 14.4C18.8555 15.6167 18.143 16.675 17.243 17.575C16.343 18.475 15.2846 19.1875 14.068 19.7125C12.8513 20.2375 11.5513 20.5 10.168 20.5ZM10.168 18.5C12.4013 18.5 14.293 17.725 15.843 16.175C17.393 14.625 18.168 12.7333 18.168 10.5C18.168 8.26667 17.393 6.375 15.843 4.825C14.293 3.275 12.4013 2.5 10.168 2.5C7.93464 2.5 6.04297 3.275 4.49297 4.825C2.94297 6.375 2.16797 8.26667 2.16797 10.5C2.16797 12.7333 2.94297 14.625 4.49297 16.175C6.04297 17.725 7.93464 18.5 10.168 18.5Z" fill="#2A2A2A"/>
</svg>
