<svg width="33" height="32" viewBox="0 0 33 32" fill="none" xmlns="http://www.w3.org/2000/svg">
<path fill-rule="evenodd" clip-rule="evenodd" d="M2.83398 5.33366C2.83398 4.3612 3.22029 3.42857 3.90793 2.74093C4.59556 2.0533 5.52819 1.66699 6.50065 1.66699H13.4633C14.3806 1.66714 15.2645 2.01109 15.9406 2.63099L22.3113 8.47099C22.6861 8.81444 22.9853 9.23205 23.1901 9.69731C23.3948 10.1626 23.5006 10.6653 23.5007 11.1737V12.0003C23.5007 12.2655 23.3953 12.5199 23.2078 12.7074C23.0202 12.895 22.7659 13.0003 22.5007 13.0003C22.2354 13.0003 21.9811 12.895 21.7935 12.7074C21.606 12.5199 21.5007 12.2655 21.5007 12.0003V11.1737C21.5007 10.707 21.3046 10.2603 20.9606 9.94433L14.59 4.10433C14.2824 3.82272 13.8804 3.66667 13.4633 3.66699H6.50065C5.58065 3.66699 4.83398 4.41366 4.83398 5.33366V20.0003C4.83398 20.2655 4.72863 20.5199 4.54109 20.7074C4.35355 20.895 4.0992 21.0003 3.83398 21.0003C3.56877 21.0003 3.31441 20.895 3.12688 20.7074C2.93934 20.5199 2.83398 20.2655 2.83398 20.0003V5.33366ZM3.83398 24.3337C4.0992 24.3337 4.35355 24.439 4.54109 24.6266C4.72863 24.8141 4.83398 25.0684 4.83398 25.3337V26.0003C4.83398 26.9203 5.58065 27.667 6.50065 27.667H13.1673C13.4325 27.667 13.6869 27.7723 13.8744 27.9599C14.062 28.1474 14.1673 28.4018 14.1673 28.667C14.1673 28.9322 14.062 29.1866 13.8744 29.3741C13.6869 29.5616 13.4325 29.667 13.1673 29.667H6.50065C6.01914 29.667 5.54234 29.5722 5.09748 29.3879C4.65262 29.2036 4.24841 28.9335 3.90793 28.5931C3.56744 28.2526 3.29736 27.8484 3.11309 27.4035C2.92883 26.9586 2.83398 26.4818 2.83398 26.0003V25.3337C2.83398 25.0684 2.93934 24.8141 3.12688 24.6266C3.31441 24.439 3.56877 24.3337 3.83398 24.3337Z" fill="#5A5A5A"/>
<path fill-rule="evenodd" clip-rule="evenodd" d="M14.5 2.33301C14.7652 2.33301 15.0196 2.43836 15.2071 2.6259C15.3946 2.81344 15.5 3.06779 15.5 3.33301V7.33301C15.5 8.25301 16.2467 8.99967 17.1667 8.99967H21.8333C22.0985 8.99967 22.3529 9.10503 22.5404 9.29257C22.728 9.4801 22.8333 9.73446 22.8333 9.99967C22.8333 10.2649 22.728 10.5192 22.5404 10.7068C22.3529 10.8943 22.0985 10.9997 21.8333 10.9997H17.1667C16.1942 10.9997 15.2616 10.6134 14.5739 9.92573C13.8863 9.2381 13.5 8.30547 13.5 7.33301V3.33301C13.5 3.06779 13.6054 2.81344 13.7929 2.6259C13.9804 2.43836 14.2348 2.33301 14.5 2.33301ZM21.8333 15.6663C20.1536 15.6663 18.5427 16.3336 17.355 17.5213C16.1673 18.7091 15.5 20.32 15.5 21.9997C15.5 23.6794 16.1673 25.2903 17.355 26.478C18.5427 27.6657 20.1536 28.333 21.8333 28.333C23.513 28.333 25.1239 27.6657 26.3117 26.478C27.4994 25.2903 28.1667 23.6794 28.1667 21.9997C28.1667 20.32 27.4994 18.7091 26.3117 17.5213C25.1239 16.3336 23.513 15.6663 21.8333 15.6663ZM13.5 21.9997C13.5 19.7895 14.378 17.6699 15.9408 16.1071C17.5036 14.5443 19.6232 13.6663 21.8333 13.6663C24.0435 13.6663 26.1631 14.5443 27.7259 16.1071C29.2887 17.6699 30.1667 19.7895 30.1667 21.9997C30.1667 24.2098 29.2887 26.3294 27.7259 27.8922C26.1631 29.455 24.0435 30.333 21.8333 30.333C19.6232 30.333 17.5036 29.455 15.9408 27.8922C14.378 26.3294 13.5 24.2098 13.5 21.9997Z" fill="#5A5A5A"/>
<path fill-rule="evenodd" clip-rule="evenodd" d="M21.834 17.667C22.0992 17.667 22.3536 17.7723 22.5411 17.9599C22.7286 18.1474 22.834 18.4018 22.834 18.667V25.3337C22.834 25.5989 22.7286 25.8532 22.5411 26.0408C22.3536 26.2283 22.0992 26.3337 21.834 26.3337C21.5688 26.3337 21.3144 26.2283 21.1269 26.0408C20.9393 25.8532 20.834 25.5989 20.834 25.3337V18.667C20.834 18.4018 20.9393 18.1474 21.1269 17.9599C21.3144 17.7723 21.5688 17.667 21.834 17.667Z" fill="#5A5A5A"/>
<path fill-rule="evenodd" clip-rule="evenodd" d="M17.5 22C17.5 21.7348 17.6054 21.4804 17.7929 21.2929C17.9804 21.1054 18.2348 21 18.5 21H25.1667C25.4319 21 25.6862 21.1054 25.8738 21.2929C26.0613 21.4804 26.1667 21.7348 26.1667 22C26.1667 22.2652 26.0613 22.5196 25.8738 22.7071C25.6862 22.8946 25.4319 23 25.1667 23H18.5C18.2348 23 17.9804 22.8946 17.7929 22.7071C17.6054 22.5196 17.5 22.2652 17.5 22Z" fill="#5A5A5A"/>
</svg>
